<svg width="100" height="130" version="1.1" viewBox="0 0 100 130" xmlns="http://www.w3.org/2000/svg">
 <title>icon-file-large-webcode</title>
 <defs>
  <filter id="a" x="-50%" y="-50%" width="200%" height="200%">
   <feOffset dy="2" in="SourceAlpha" result="shadowOffsetOuter1"/>
   <feGaussianBlur in="shadowOffsetOuter1" result="shadowBlurOuter1" stdDeviation="7"/>
   <feColorMatrix in="shadowBlurOuter1" result="shadowMatrixOuter1" values="0 0 0 0 0 0 0 0 0 0 0 0 0 0 0 0 0 0 0.07 0"/>
   <feMerge>
    <feMergeNode in="shadowMatrixOuter1"/>
    <feMergeNode in="SourceGraphic"/>
   </feMerge>
  </filter>
  <filter id="b" x="-50%" y="-50%" width="200%" height="200%">
   <feOffset dx="-1" dy="3" in="SourceAlpha" result="shadowOffsetOuter1"/>
   <feGaussianBlur in="shadowOffsetOuter1" result="shadowBlurOuter1"/>
   <feColorMatrix in="shadowBlurOuter1" result="shadowMatrixOuter1" values="0 0 0 0 0 0 0 0 0 0 0 0 0 0 0 0 0 0 0.07 0"/>
   <feMerge>
    <feMergeNode in="shadowMatrixOuter1"/>
    <feMergeNode in="SourceGraphic"/>
   </feMerge>
  </filter>
  <filter id="filter132" color-interpolation-filters="sRGB">
   <feColorMatrix result="color1" type="hueRotate" values="180"/>
   <feColorMatrix result="color2" values="-1 0 0 0 1 0 0 -1 0 1 0 -1 0 0 1 -0.21 -0.72 -0.07 1.93 0 "/>
  </filter>
 </defs>
 <g fill="none" fill-rule="evenodd" filter="url(#filter132)">
  <g stroke-width="2">
   <path transform="translate(15 12)" d="M0 6.993C0 3.683 2.68 1 5.99 1h44.287C54.852 1 70 15.79 70 20.19v74.816c0 3.31-2.68 5.994-5.998 5.994H5.998C2.686 101 0 98.312 0 95.007V6.993z" fill="#F4F6FC" filter="url(#a)" stroke="#7289DA"/>
   <path transform="translate(15 12)" d="M51 3.997c0-3.312 1.895-4.102 4.242-1.755l13.516 13.516C71.1 18.1 70.313 20 67.003 20H54c-1.656 0-3-1.343-3-3V3.996z" fill="#F4F6FC" filter="url(#b)" stroke="#7289DA"/>
   <path d="M61 17H22.985c-2.76 0-4.997 2.23-4.997 5.002V29" opacity=".6" stroke="#C9D2F0"/>
   <path d="M69 19v7.502C69 27.882 70.11 29 71.5 29H74" stroke="#C9D2F0" stroke-opacity=".6"/>
  </g>
  <path d="M39.37 89.8h-2.58l9.84-26.1h2.58l-9.84 26.1zm25.06-13.68l-11.31 7.56v-2.79l8.76-5.79v-.12l-8.76-5.79V66.4l11.31 7.56v2.16z" fill="#697EC4" opacity=".8"/>
 </g>
</svg>
